<svg xmlns="http://www.w3.org/2000/svg" version="1.1" xmlns:xlink="http://www.w3.org/1999/xlink" xmlns:svgjs="http://svgjs.dev/svgjs" width="1500" height="178" viewBox="0 0 1500 178"><g transform="matrix(1,0,0,1,-0.9090909090909918,-0.9798785959743128)"><svg viewBox="0 0 396 47" data-background-color="#ffffff" preserveAspectRatio="xMidYMid meet" height="178" width="1500" xmlns="http://www.w3.org/2000/svg" xmlns:xlink="http://www.w3.org/1999/xlink"><g id="tight-bounds" transform="matrix(1,0,0,1,0.2400000000000091,0.2587319888246782)"><svg viewBox="0 0 395.52 46.482536022350644" height="46.482536022350644" width="395.52"><g><svg viewBox="0 0 395.52 46.482536022350644" height="46.482536022350644" width="395.52"><g><svg viewBox="0 0 395.52 46.482536022350644" height="46.482536022350644" width="395.52"><g><svg viewBox="0 0 449.3574574804262 52.80965363128492" height="46.482536022350644" width="395.52"><g transform="matrix(1,0,0,1,53.83745748042625,0)"><svg viewBox="0 0 395.52 52.80965363128492" height="52.80965363128492" width="395.52"><g id="textblocktransform"><svg viewBox="0 0 395.52 52.80965363128492" height="52.80965363128492" width="395.52" id="textblock"><g><svg viewBox="0 0 395.52 52.80965363128492" height="52.80965363128492" width="395.52"><g transform="matrix(1,0,0,1,0,0)"><svg width="395.52" viewBox="1.25 -35.2 268.48 35.85" height="52.80965363128492" data-palette-color="#c10000"><path d="M26.8-34.5L28.75 0 23.4 0 22.6-16.8Q22.45-20.1 22.45-23.15L22.45-23.15Q22.45-27.1 22.6-29.4L22.6-29.4 17.5-6.1 12.45-6.1 7-29.4Q7.2-26.85 7.2-21.55L7.2-21.55Q7.2-18.35 7.15-16.75L7.15-16.75 6.45 0 1.25 0 3.2-34.5 10.15-34.5 15.1-11.4 19.8-34.5 26.8-34.5ZM55.4-34.5L55.4-30.1 47.9-30.1 47.9-4.45 55.4-4.45 55.4 0 34.6 0 34.6-4.45 42.1-4.45 42.1-30.1 34.6-30.1 34.6-34.5 55.4-34.5ZM78.9 0L67.9-29.35Q68.7-21.15 68.7-15.65L68.7-15.65 68.7 0 63.55 0 63.55-34.5 71.09-34.5 82.09-5.15Q81.75-8.85 81.52-11.83 81.3-14.8 81.3-18.8L81.3-18.8 81.3-34.5 86.45-34.5 86.45 0 78.9 0ZM118.04-17.45Q118.04-7.65 113.49-3.83 108.94 0 101.99 0L101.99 0 93.54 0 93.54-34.5 101.44-34.5Q108.94-34.5 113.49-30.88 118.04-27.25 118.04-17.45L118.04-17.45ZM111.94-17.45Q111.94-24.85 109.37-27.45 106.79-30.05 102.54-30.05L102.54-30.05 99.34-30.05 99.34-4.4 102.59-4.4Q111.94-4.4 111.94-17.45L111.94-17.45ZM147.44-9.75Q147.44-6.65 145.87-4.3 144.29-1.95 141.31-0.65 138.34 0.65 134.24 0.65L134.24 0.65Q126.24 0.65 121.54-3.95L121.54-3.95 124.74-7.5Q128.64-3.9 134.24-3.9L134.24-3.9Q137.34-3.9 139.37-5.35 141.39-6.8 141.39-9.45L141.39-9.45Q141.39-11 140.77-12.05 140.14-13.1 138.64-13.93 137.14-14.75 134.34-15.6L134.34-15.6Q128.59-17.3 125.89-19.65 123.19-22 123.19-25.85L123.19-25.85Q123.19-28.6 124.72-30.73 126.24-32.85 128.94-34.02 131.64-35.2 135.04-35.2L135.04-35.2Q141.99-35.2 146.59-31.05L146.59-31.05 143.54-27.6Q139.99-30.65 135.39-30.65L135.39-30.65Q132.59-30.65 130.87-29.5 129.14-28.35 129.14-26.2L129.14-26.2Q129.14-24.85 129.87-23.9 130.59-22.95 132.31-22.18 134.04-21.4 137.19-20.45L137.19-20.45Q142.19-18.95 144.81-16.6 147.44-14.25 147.44-9.75L147.44-9.75ZM178.19-23.65Q178.19-17.85 174.59-15.08 170.99-12.3 164.74-12.3L164.74-12.3 160.54-12.3 160.54 0 154.79 0 154.79-34.5 164.34-34.5Q170.99-34.5 174.59-31.78 178.19-29.05 178.19-23.65L178.19-23.65ZM172.14-23.65Q172.14-30.15 164.74-30.15L164.74-30.15 160.54-30.15 160.54-16.7 164.79-16.7Q168.29-16.7 170.21-18.3 172.14-19.9 172.14-23.65L172.14-23.65ZM201.04-8.3L188.74-8.3 186.34 0 180.39 0 191.39-34.5 198.59-34.5 209.59 0 203.44 0 201.04-8.3ZM189.94-12.8L199.84-12.8 194.89-30 189.94-12.8ZM237.28-24.5Q237.28-20.9 235.13-18.5 232.98-16.1 229.43-15L229.43-15 239.23 0 232.48 0 223.78-14.2 220.03-14.2 220.03 0 214.23 0 214.23-34.5 223.83-34.5Q237.28-34.5 237.28-24.5L237.28-24.5ZM231.23-24.5Q231.23-27.5 229.51-28.85 227.78-30.2 224.18-30.2L224.18-30.2 220.03-30.2 220.03-18.45 224.33-18.45Q227.73-18.45 229.48-19.9 231.23-21.35 231.23-24.5L231.23-24.5ZM250.18 0L244.38 0 244.38-34.5 250.18-34.5 250.18 0ZM250.43-18.45L262.38-34.5 268.78-34.5 256.73-18.8 269.73 0 262.78 0 250.43-18.45Z" opacity="1" transform="matrix(1,0,0,1,0,0)" fill="#c10000" class="wordmark-text-0" data-fill-palette-color="primary" id="text-0"></path></svg></g></svg></g></svg></g></svg></g><g transform="matrix(1,0,0,1,0,0.49588264759776735)"><svg viewBox="0 0 41.370365689767034 51.81788833608938" height="51.81788833608938" width="41.370365689767034"><g><svg xmlns="http://www.w3.org/2000/svg" xmlns:xlink="http://www.w3.org/1999/xlink" version="1.1" x="0" y="0" viewBox="10.081 0 79.838 100" enable-background="new 0 0 100 100" xml:space="preserve" height="51.81788833608938" width="41.370365689767034" class="icon-icon-0" data-fill-palette-color="accent" id="icon-0"><g fill="#003c3b" data-fill-palette-color="accent"><path fill="#003c3b" d="M88.507 8.361A39.9 39.9 0 0 1 76.612 10.164C73.903 10.164 71.257 9.894 68.702 9.381A39.8 39.8 0 0 1 51.05 0.905 39 39 0 0 1 50 0C49.656 0.307 49.305 0.61 48.95 0.905A39.8 39.8 0 0 1 31.297 9.381C28.743 9.895 26.097 10.164 23.388 10.164A39.9 39.9 0 0 1 10.081 7.891V50.559C10.081 74.833 27.188 95.113 50 100 72.812 95.113 89.919 74.833 89.919 50.56V7.892C89.453 8.058 88.983 8.213 88.507 8.361M20.394 71.207A45.35 45.35 0 0 1 15.405 50.56V14.783C18.028 15.252 20.698 15.488 23.388 15.488 26.406 15.488 29.42 15.188 32.348 14.598A45.3 45.3 0 0 0 50 6.833 45.4 45.4 0 0 0 65.477 14.102zM84.596 50.56C84.596 60.973 80.973 71.137 74.395 79.18 68.146 86.82 59.519 92.244 50 94.542 44.343 93.176 39.005 90.698 34.29 87.315L84.596 23.593z" data-fill-palette-color="accent"></path></g></svg></g></svg></g></svg></g></svg></g></svg></g><defs></defs></svg><rect width="395.52" height="46.482536022350644" fill="none" stroke="none" visibility="hidden"></rect></g></svg></g></svg>